<svg width="26" height="22" viewBox="0 0 66 62" fill="none" xmlns="http://www.w3.org/2000/svg">
<path d="M64.3994 30.4941L34.6332 0.749575C34.4188 0.534831 34.1643 0.364462 33.884 0.248219C33.6038 0.131977 33.3033 0.0721436 33 0.0721436C32.6966 0.0721436 32.3961 0.131977 32.1159 0.248219C31.8356 0.364462 31.5811 0.534831 31.3667 0.749575L1.60054 30.4941C0.73335 31.3613 0.241943 32.5392 0.241943 33.7677C0.241943 36.3187 2.31597 38.3927 4.86694 38.3927H8.00327V59.6172C8.00327 60.8963 9.03667 61.9297 10.3158 61.9297H28.375V45.7422H36.4687V61.9297H55.6841C56.9632 61.9297 57.9966 60.8963 57.9966 59.6172V38.3927H61.133C62.3615 38.3927 63.5394 37.9086 64.4066 37.0341C66.206 35.2275 66.206 32.3007 64.3994 30.4941Z" fill="#5B5858"/>
<path d="M64.3994 30.4941L34.6332 0.749575C34.4188 0.534831 34.1643 0.364462 33.884 0.248219C33.6038 0.131977 33.3033 0.0721436 33 0.0721436C32.6966 0.0721436 32.3961 0.131977 32.1159 0.248219C31.8356 0.364462 31.5811 0.534831 31.3667 0.749575L1.60054 30.4941C0.73335 31.3613 0.241943 32.5392 0.241943 33.7677C0.241943 36.3187 2.31597 38.3927 4.86694 38.3927H8.00327V59.6172C8.00327 60.8963 9.03667 61.9297 10.3158 61.9297H28.375V45.7422H36.4687V61.9297H55.6841C56.9632 61.9297 57.9966 60.8963 57.9966 59.6172V38.3927H61.133C62.3615 38.3927 63.5394 37.9086 64.4066 37.0341C66.206 35.2275 66.206 32.3007 64.3994 30.4941Z" fill="black" fill-opacity="0.2"/>
</svg>